<?xml version="1.0" encoding="utf-8"?>
<!-- Generator: Adobe Illustrator 19.2.1, SVG Export Plug-In . SVG Version: 6.00 Build 0)  -->
<svg version="1.1" id="Layer_1" xmlns="http://www.w3.org/2000/svg" xmlns:xlink="http://www.w3.org/1999/xlink" x="0px" y="0px"
	 viewBox="0 0 32 32" style="enable-background:new 0 0 32 32;" xml:space="preserve">
<style type="text/css">
	.st0{fill:#FFFFFF;}
</style>
<path class="st0" d="M14.3,24.8v3.6h-2.5c-0.5,0-0.9,0.4-0.9,0.9s0.4,0.9,0.9,0.9H16l0,0h4.2c0.5,0,0.9-0.4,0.9-0.9
	s-0.4-0.9-0.9-0.9h-2.5v-3.6c3.6-0.7,6.8-3.6,6.8-8.2V14c0-0.5-0.4-0.9-0.9-0.9s-0.9,0.4-0.9,0.9v2.6c0,4.4-3.4,6.8-6.8,6.8
	c-3.2,0-6.8-2.1-6.8-6.8V14c0-0.5-0.4-0.9-0.9-0.9S7.5,13.5,7.5,14v2.6C7.5,21.3,10.7,24,14.3,24.8z M16,19.9c1.8,0,3.4-1.5,3.4-3.4
	V6.4c0-1.8-1.5-3.3-3.4-3.3s-3.3,1.5-3.3,3.3v10.1C12.7,18.4,14.2,19.9,16,19.9z"/>
</svg>
