<?xml version="1.0" encoding="utf-8"?>
<!-- Generator: Adobe Illustrator 19.2.1, SVG Export Plug-In . SVG Version: 6.00 Build 0)  -->
<svg version="1.1" id="Layer_1" xmlns="http://www.w3.org/2000/svg" xmlns:xlink="http://www.w3.org/1999/xlink" x="0px" y="0px"
	 viewBox="0 0 32 32" style="enable-background:new 0 0 32 32;" xml:space="preserve">
<style type="text/css">
	.st0{fill:#FFFFFF;}
</style>
<g>
	<g>
		<g>
			<path class="st0" d="M8.7,7.9c0.5-0.1,1-0.1,1.6-0.1c1,0,1.7,0.1,2.2,0.6c0.5,0.4,0.7,1.1,0.7,1.7c0,0.9-0.2,1.5-0.7,2
				s-1.4,0.7-2,0.7c-0.1,0-0.2,0-0.4,0v3H8.7V7.9z M10.3,11.6c0.1,0,0.1,0,0.2,0c0.7,0,1.1-0.6,1.1-1.4c0-0.7-0.2-1.2-1-1.2
				c-0.1,0-0.2,0-0.4,0C10.2,8.9,10.2,11.6,10.3,11.6z"/>
		</g>
		<g>
			<path class="st0" d="M14.3,7.9c0.4-0.1,1-0.1,1.6-0.1c1,0,1.7,0.2,2.2,0.7c0.7,0.6,1.1,1.7,1.1,3.2c0,1.6-0.4,2.9-1.1,3.5
				c-0.5,0.5-1.4,0.7-2.5,0.7c-0.5,0-1,0-1.4-0.1L14.3,7.9L14.3,7.9z M15.9,14.7c0.1,0,0.2,0,0.2,0c0.7,0,1.4-0.7,1.4-3
				c0-1.6-0.5-2.7-1.4-2.7c-0.1,0-0.2,0-0.4,0v5.7H15.9z"/>
		</g>
		<g>
			<path class="st0" d="M20.3,7.8h3.6v1.4h-2v2.1h1.9v1.4h-1.9V16h-1.6V7.8z"/>
		</g>
	</g>
	<g>
		<g>
			<path class="st0" d="M21.6,18.2l-6,6l-6-6c-0.4-0.4-1-0.4-1.5,0c-0.4,0.4-0.4,1,0,1.5l6.6,6.6c0.2,0.2,0.5,0.2,0.7,0.2
				s0.5-0.1,0.7-0.2l6.6-6.6c0.4-0.4,0.4-1,0-1.5C22.6,17.9,21.9,17.9,21.6,18.2z"/>
		</g>
	</g>
</g>
<g>
	<path class="st0" d="M28.3,30H3.5c-0.5,0-1-0.5-1-1V4c0-0.5,0.5-1,1-1h24.9c0.5,0,1,0.5,1,1v25C29.2,29.7,29,30,28.3,30z M5,27.9
		h21.8c0.4,0,0.6-0.2,0.6-0.6V5.7c0-0.4-0.2-0.6-0.6-0.6H5C4.7,5,4.3,5.3,4.3,5.7v21.9C4.3,27.8,4.7,27.9,5,27.9z"/>
</g>
</svg>
