<?xml version="1.0" encoding="utf-8"?>
<!-- Generator: Adobe Illustrator 19.2.0, SVG Export Plug-In . SVG Version: 6.00 Build 0)  -->
<svg version="1.1" id="Layer_1" xmlns="http://www.w3.org/2000/svg" xmlns:xlink="http://www.w3.org/1999/xlink" x="0px" y="0px"
	 viewBox="0 0 32 32" style="enable-background:new 0 0 32 32;" xml:space="preserve">
<style type="text/css">
	.st0{fill:#FFFFFF;}
</style>
<g>
	<path class="st0" d="M27.9,8.1h-1.7V4.7c0-1-0.7-1.7-1.7-1.7h-20c-1,0-1.7,0.7-1.7,1.7v18.4c0,1,0.7,1.7,1.7,1.7H6v3.4
		c0,1,0.7,1.7,1.7,1.7h20.2c1,0,1.7-0.7,1.7-1.7V9.7C29.6,8.9,28.9,8.1,27.9,8.1z M4.4,22.7V5.3C4.4,5,4.7,4.7,5,4.7h19.1
		c0.4,0,0.6,0.2,0.6,0.6v17.3c0,0.4-0.2,0.6-0.6,0.6H4.9C4.7,23.2,4.4,22.9,4.4,22.7z M27.3,28.3H8.3c-0.4,0-0.6-0.2-0.6-0.6v-2.8
		h1.7v1.7h1.7h13.4h1.7v-1.7v-1.7v-5V9.7H28v18C27.9,28,27.6,28.3,27.3,28.3z"/>
</g>
<g>
	<path class="st0" d="M12.6,18.1c-0.4,0.1-1.2,0.4-1.8,0.4c-1,0-1.7-0.2-2.3-0.9c-0.7-0.7-1.2-2.1-1.1-3.5c0-3.2,1.8-4.5,3.8-4.5
		c0.6,0,1.2,0.1,1.5,0.2l-0.2,1.5c-0.4-0.2-0.7-0.4-1.1-0.4c-1.2,0-2.1,0.9-2.1,3.1c0,2.1,0.9,2.8,1.6,2.8c0.1,0,0.2,0,0.4,0v-2.1
		h-0.9v-1.3h2.3V18.1z"/>
	<path class="st0" d="M15.7,9.6v8.8H14V9.6H15.7z"/>
	<path class="st0" d="M17.1,9.6h3.8v1.5h-2.1v2.2h2v1.5h-2v3.7h-1.7V9.6z"/>
</g>
</svg>
