<?xml version="1.0" encoding="utf-8"?>
<!-- Generator: Adobe Illustrator 19.2.0, SVG Export Plug-In . SVG Version: 6.00 Build 0)  -->
<svg version="1.1" id="Layer_1" xmlns="http://www.w3.org/2000/svg" xmlns:xlink="http://www.w3.org/1999/xlink" x="0px" y="0px"
	 viewBox="0 0 32 32" style="enable-background:new 0 0 32 32;" xml:space="preserve">
<style type="text/css">
	.st0{fill:#FFFFFF;}
</style>
<path class="st0" d="M28.4,3.2H3.8c-0.6,0-1.4,0.4-1.4,1v24.5c0,0.6,0.6,1.5,1.3,1.5h24.5c0.6,0,1.1-0.7,1.1-1.5V4.2
	C29.6,3.6,29,3.2,28.4,3.2z M16.2,10.8c3.2,0,5.6,2.6,5.6,5.6s-2.6,5.6-5.6,5.6s-5.8-2.6-5.8-5.6S13.1,10.8,16.2,10.8z M27.2,27.3
	c0,0.2-0.1,0.5-0.4,0.5H5.6c-0.2,0-0.5-0.4-0.5-0.6V16c0-0.2,0.2-0.4,0.5-0.4h2.2c0.2,0,0.5,0,0.5,0.4c-0.2,1.5,0,2.7,0.9,4.3
	c1.5,2.8,4.3,4.7,7.5,4.5c4.3-0.1,7.9-3.8,7.9-8.1c0-0.5-0.1-0.4-0.1-0.9c0-0.2,0.1-0.2,0.4-0.2h2.2c0.2,0,0.2,0.1,0.2,0.4
	C27,16,27,27.3,27.2,27.3z M26.9,10.3h-3.8c-0.4,0-0.6-0.2-0.6-0.6V6c0-0.4,0.2-0.6,0.5-0.6h3.8c0.4,0,0.6,0.2,0.6,0.6v3.8
	C27.5,10.1,27.2,10.3,26.9,10.3z"/>
</svg>
