<?xml version="1.0" encoding="utf-8"?>
<!-- Generator: Adobe Illustrator 19.2.1, SVG Export Plug-In . SVG Version: 6.00 Build 0)  -->
<svg version="1.1" id="Layer_1" xmlns="http://www.w3.org/2000/svg" xmlns:xlink="http://www.w3.org/1999/xlink" x="0px" y="0px"
	 viewBox="0 0 54.4 32" style="enable-background:new 0 0 54.4 32;" xml:space="preserve">
<g>
	<g>
		<path d="M4,14.4c-2.2,0-4-1.8-4-4s1.8-4,4-4s4,1.8,4,4S6.2,14.4,4,14.4z M4,8.5c-1.1,0-2,0.9-2,2c0,1.1,0.9,2,2,2s2-0.9,2-2
			C6,9.4,5.1,8.5,4,8.5z"/>
	</g>
	<g>
		<path d="M4,18.1c-0.6,0-1-0.4-1-1v-3.3c0-0.6,0.4-1,1-1c0.6,0,1,0.4,1,1v3.3C5,17.8,4.6,18.1,4,18.1z"/>
	</g>
	<g>
		<path d="M4,8C3.4,8,3,7.7,3,7V1.2c0-0.6,0.4-1,1-1c0.6,0,1,0.4,1,1V7C5,7.7,4.6,8,4,8z"/>
	</g>
	<g>
		<path d="M14.9,10.9c-2.2,0-4-1.8-4-4s1.8-4,4-4s4,1.8,4,4S17.1,10.9,14.9,10.9z M14.9,4.8c-1.1,0-2,0.9-2,2s0.9,2,2,2s2-0.9,2-2
			S16,4.8,14.9,4.8z"/>
	</g>
	<g>
		<path d="M14.9,18.1c-0.6,0-1-0.4-1-1v-6.9c0-0.6,0.4-1,1-1s1,0.4,1,1v6.9C15.9,17.8,15.4,18.1,14.9,18.1z"/>
	</g>
	<g>
		<path d="M14.9,4.5c-0.6,0-1-0.4-1-1V1.2c0-0.6,0.4-1,1-1s1,0.4,1,1v2.3C15.9,4,15.4,4.5,14.9,4.5z"/>
	</g>
	<g>
		<path d="M25.6,15.9c-2.2,0-4-1.8-4-4s1.8-4,4-4s4,1.8,4,4S27.8,15.9,25.6,15.9z M25.6,9.9c-1.1,0-2,0.9-2,2s0.9,2,2,2s2-0.9,2-2
			S26.7,9.9,25.6,9.9z"/>
	</g>
	<g>
		<path d="M25.6,18.1c-0.6,0-1-0.4-1-1v-1.9c0-0.6,0.4-1,1-1s1,0.4,1,1v1.9C26.6,17.8,26.1,18.1,25.6,18.1z"/>
	</g>
	<g>
		<path d="M25.6,9.4c-0.6,0-1-0.4-1-1V1.2c0-0.6,0.4-1,1-1s1,0.4,1,1v7.3C26.6,9,26.1,9.4,25.6,9.4z"/>
	</g>
</g>
</svg>
