<?xml version="1.0" encoding="utf-8"?>
<!-- Generator: Adobe Illustrator 19.2.1, SVG Export Plug-In . SVG Version: 6.00 Build 0)  -->
<svg version="1.1" id="Layer_1" xmlns="http://www.w3.org/2000/svg" xmlns:xlink="http://www.w3.org/1999/xlink" x="0px" y="0px"
	 viewBox="0 0 32 32" style="enable-background:new 0 0 32 32;" xml:space="preserve">
<g>
	<g>
		<path d="M8.8,3.9H6.2V1.2C6.2,0.5,5.6,0,5,0S3.9,0.5,3.9,1.2v2.7H1.2C0.5,3.9,0,4.4,0,5.1s0.5,1.2,1.2,1.2h2.7V9
			c0,0.7,0.5,1.2,1.2,1.2c0.7,0,1.2-0.5,1.2-1.2V6.3H9c0.7,0,1.2-0.5,1.2-1.2C10,4.3,9.5,3.9,8.8,3.9z"/>
	</g>
	<g>
		<path d="M8.8,16.3H6.2H3.9H1.2c-0.7,0-1.2,0.5-1.2,1.2c0,0.7,0.5,1.2,1.2,1.2h2.7h2.4H9c0.7,0,1.2-0.5,1.2-1.2
			C10,16.7,9.5,16.3,8.8,16.3z"/>
	</g>
</g>
</svg>
