<?xml version="1.0" encoding="utf-8"?>
<!-- Generator: Adobe Illustrator 19.2.1, SVG Export Plug-In . SVG Version: 6.00 Build 0)  -->
<svg version="1.1" id="Layer_1" xmlns="http://www.w3.org/2000/svg" xmlns:xlink="http://www.w3.org/1999/xlink" x="0px" y="0px"
	 viewBox="0 0 249 223.4" style="enable-background:new 0 0 249 223.4;" xml:space="preserve">
<style type="text/css">
	.st0{opacity:0.6;fill:#FFFFFF;enable-background:new    ;}
	.st1{fill:#FFFFFF;}
</style>
<g>
	<path class="st0" d="M242.4,8.7h-3.1v3.2h-1.5V8.7h-3.1V7.3h3.1V3.9h1.5v3.2h3.1V8.7z"/>
	<path class="st0" d="M230.1,28.5h-3.1v3.2h-1.5v-3.2h-3.1V27h3.1v-3.2h1.5V27h3.1V28.5z"/>
	<path class="st0" d="M242.4,28.5h-3.1v3.2h-1.5v-3.2h-3.1V27h3.1v-3.2h1.5V27h3.1V28.5z"/>
	<path class="st0" d="M196,48.4h-3.1v3.2h-1.5v-3.2h-3.1V47h3.1v-3.2h1.5V47h3.1V48.4z"/>
	<path class="st0" d="M208.3,48.4h-3.1v3.2h-1.5v-3.2h-3.1V47h3.1v-3.2h1.5V47h3.1V48.4z"/>
	<path class="st0" d="M230.1,48.4h-3.1v3.2h-1.5v-3.2h-3.1V47h3.1v-3.2h1.5V47h3.1V48.4z"/>
	<path class="st0" d="M242.4,48.4h-3.1v3.2h-1.5v-3.2h-3.1V47h3.1v-3.2h1.5V47h3.1V48.4z"/>
	<path class="st0" d="M174.2,68.4h-3.1v3.2h-1.5v-3.2h-3.1v-1.5h3.1v-3.2h1.5v3.2h3.1V68.4z"/>
	<path class="st0" d="M196,68.4h-3.1v3.2h-1.5v-3.2h-3.1v-1.5h3.1v-3.2h1.5v3.2h3.1V68.4z"/>
	<path class="st0" d="M217.7,68.4h-3.1v3.2h-1.4v-3.2h-3.1v-1.5h3.1v-3.2h1.5v3.2h3.1L217.7,68.4L217.7,68.4z"/>
	<path class="st0" d="M230.1,68.4h-3.1v3.2h-1.5v-3.2h-3.1v-1.5h3.1v-3.2h1.5v3.2h3.1V68.4z"/>
	<path class="st0" d="M242.4,68.4h-3.1v3.2h-1.5v-3.2h-3.1v-1.5h3.1v-3.2h1.5v3.2h3.1V68.4z"/>
	<path class="st0" d="M146.8,88.2h-3.1v3.2h-1.5v-3.2H139v-1.5h3.1v-3.2h1.5v3.2h3.1V88.2z"/>
	<path class="st0" d="M168.5,88.2h-3.1v3.2h-1.5v-3.2h-3.1v-1.5h3.1v-3.2h1.5v3.2h3.1V88.2z"/>
	<path class="st0" d="M180.9,88.2h-3.1v3.2h-1.5v-3.2h-3.1v-1.5h3.1v-3.2h1.5v3.2h3.1V88.2z"/>
	<path class="st0" d="M193.2,88.2H190v3.2h-1.5v-3.2h-3.1v-1.5h3.1v-3.2h1.5v3.2h3.1V88.2z"/>
	<path class="st0" d="M205.4,88.2h-3.1v3.2h-1.5v-3.2h-3.1v-1.5h3.1v-3.2h1.5v3.2h3.1V88.2z"/>
	<path class="st0" d="M217.7,88.2h-3.1v3.2h-1.4v-3.2h-3.1v-1.5h3.1v-3.2h1.5v3.2h3.1L217.7,88.2L217.7,88.2z"/>
	<path class="st0" d="M230.1,88.2h-3.1v3.2h-1.5v-3.2h-3.1v-1.5h3.1v-3.2h1.5v3.2h3.1V88.2z"/>
	<path class="st0" d="M242.4,88.2h-3.1v3.2h-1.5v-3.2h-3.1v-1.5h3.1v-3.2h1.5v3.2h3.1V88.2z"/>
	<path class="st0" d="M124.6,108.2h-3.1v3.2H120v-3.2h-3.1v-1.5h3.1v-3.2h1.5v3.2h3.1V108.2z"/>
	<path class="st0" d="M137,108.2h-3.2v3.2h-1.5v-3.2h-3.1v-1.5h3.1v-3.2h1.5v3.2h3.1L137,108.2L137,108.2z"/>
	<path class="st0" d="M156.2,108.2H153v3.2h-1.5v-3.2h-3.1v-1.5h3.1v-3.2h1.5v3.2h3.1L156.2,108.2L156.2,108.2z"/>
	<path class="st0" d="M168.5,108.2h-3.1v3.2h-1.5v-3.2h-3.1v-1.5h3.1v-3.2h1.5v3.2h3.1V108.2z"/>
	<path class="st0" d="M180.9,108.2h-3.1v3.2h-1.5v-3.2h-3.1v-1.5h3.1v-3.2h1.5v3.2h3.1V108.2z"/>
	<path class="st0" d="M193.2,108.2H190v3.2h-1.5v-3.2h-3.1v-1.5h3.1v-3.2h1.5v3.2h3.1V108.2z"/>
	<path class="st0" d="M205.4,108.2h-3.1v3.2h-1.5v-3.2h-3.1v-1.5h3.1v-3.2h1.5v3.2h3.1V108.2z"/>
	<path class="st0" d="M217.7,108.2h-3.1v3.2h-1.4v-3.2h-3.1v-1.5h3.1v-3.2h1.5v3.2h3.1L217.7,108.2L217.7,108.2z"/>
	<path class="st0" d="M230.1,108.2h-3.1v3.2h-1.5v-3.2h-3.1v-1.5h3.1v-3.2h1.5v3.2h3.1V108.2z"/>
	<path class="st0" d="M242.4,108.2h-3.1v3.2h-1.5v-3.2h-3.1v-1.5h3.1v-3.2h1.5v3.2h3.1V108.2z"/>
	<path class="st0" d="M103,133.5h-3.1v3.2h-1.5v-3.2h-3.1V132h3.1v-3.2h1.5v3.2h3.1L103,133.5L103,133.5z"/>
	<path class="st1" d="M115.6,136.1c0.6,2,2,2.9,4.1,2.9c2.1,0,3.3-1,3.3-2.6c0-1.1-0.8-1.8-2.1-2.3l-2.9-0.8c-1.1-0.3-1.7-0.6-2.4-1
		c-0.8-0.8-1.1-1.6-1.1-2.7c0-2.3,1.8-3.8,4.7-3.8c2.4,0,4.2,1.1,5,3.5l-1.6,0.5c-0.3-0.8-0.3-1.1-0.9-1.5c-0.8-0.6-1.6-1-2.6-1
		c-1.7,0-3,1-3,2.3c0,1.1,0.6,1.7,2.3,2.1l2.6,0.6c2.4,0.6,3.6,1.8,3.6,3.8c0,2.6-2,4.2-5.2,4.2c-1.7,0-3.1-0.5-4.1-1.4
		c-0.8-0.8-1.1-1.4-1.6-2.6L115.6,136.1z"/>
	<path class="st1" d="M138.2,133.2c0,2.1-0.6,4.1-1.8,5.6c-1,1.2-2.3,1.7-4,1.7c-1.6,0-3-0.6-4-1.8c-1.1-1.4-1.7-3.2-1.7-5.5
		c0-4.4,2.4-7.3,5.7-7.3C135.8,125.8,138.2,128.8,138.2,133.2z M128.5,133.2c0,3.5,1.6,5.9,4,5.9c2.4,0,4-2.4,4-5.9
		c0-3.6-1.5-5.9-4-5.9S128.5,129.6,128.5,133.2z"/>
	<path class="st1" d="M149.4,140.1l-7.3-12.2v0.9c0,0.5,0,0.8,0,0.9v10.5h-1.4v-14.2h2.3l6.8,11.5v-1c0-0.5,0-0.9,0-1v-9.5h1.4v14.1
		H149.4L149.4,140.1z"/>
	<path class="st1" d="M157,143.7c-2-2.6-3-5.6-3-8.8c0-3.1,1-5.9,3-8.8h1.1c-1.7,2.7-2.6,5.5-2.6,8.7s0.9,5.9,2.6,8.8L157,143.7
		L157,143.7z"/>
	<path class="st1" d="M169.2,135.2c0,3.1-2,5.3-4.8,5.3c-2.7,0-4.5-2.3-4.5-5.5s1.8-5.5,4.7-5.5
		C167.6,129.6,169.2,131.7,169.2,135.2z M162.4,131.9c-0.5,0.6-0.8,1.7-0.8,3c0,2.7,1,4.2,2.9,4.2c1.8,0,2.9-1.5,2.9-4.1
		c0-1.4-0.3-2.4-0.8-3.1c-0.5-0.8-1.4-1.1-2.3-1.1C163.8,130.8,162.9,131.3,162.4,131.9z"/>
	<path class="st1" d="M172.3,126.1c2,2.6,3,5.6,3,8.8c0,3.1-1,5.9-3,8.8h-1.1c1.7-2.7,2.6-5.5,2.6-8.7s-0.9-5.9-2.6-8.8L172.3,126.1
		L172.3,126.1z"/>
	<path class="st1" d="M180.6,140.1v-12.6h-4v-1.5h9.8v1.5h-4v12.6H180.6L180.6,140.1z"/>
	<path class="st1" d="M188.3,140.1v-14.1h1.7v14.1H188.3z"/>
	<path class="st1" d="M193.5,140.1v-14.1h5c1.2,0,2.3,0.3,3,0.9c0.9,0.8,1.5,2,1.5,3.3c0,2.4-1.8,4.1-4.4,4.1h-3.3v5.7
		C195.3,140.1,193.5,140.1,193.5,140.1z M198.5,133.1c1.6,0,2.7-1.1,2.7-2.7c0-1.6-1.1-2.7-2.6-2.7h-3.3v5.5
		C195.3,133.1,198.5,133.1,198.5,133.1z"/>
	<path class="st1" d="M216,133.2c0,2.1-0.6,4.1-1.8,5.6c-1,1.2-2.3,1.7-4,1.7c-1.6,0-3-0.6-4-1.8c-1.1-1.4-1.7-3.2-1.7-5.5
		c0-4.4,2.4-7.3,5.7-7.3C213.8,125.8,216,128.8,216,133.2z M206.3,133.2c0,3.5,1.6,5.9,4,5.9c2.4,0,4-2.4,4-5.9c0-3.6-1.5-5.9-4-5.9
		C207.8,127.3,206.3,129.6,206.3,133.2z"/>
	<path class="st1" d="M229.5,128.7c0,3-2.4,5.5-5.3,5.5c-3,0-5.5-2.4-5.5-5.5c0-3.1,2.4-5.5,5.5-5.5
		C227.1,123.4,229.5,125.8,229.5,128.7z M219.7,128.7c0,2.4,2,4.6,4.5,4.6s4.5-2,4.5-4.6c0-2.4-2-4.6-4.4-4.6
		C221.6,124.2,219.7,126.2,219.7,128.7z M226.6,129.8c-0.1,0.6-0.1,0.8-0.3,1.1c-0.5,0.8-1.2,1.1-2.1,1.1s-1.4-0.3-1.8-0.8
		c-0.5-0.6-0.9-1.5-0.9-2.4c0-2,1.1-3.2,2.7-3.2c1.4,0,2.3,0.8,2.4,2.3l-1.2,0.1c-0.1-0.3-0.1-0.6-0.3-0.8c-0.3-0.5-0.6-0.6-1-0.6
		c-0.9,0-1.2,0.8-1.2,2.3c0,1.4,0.5,2.3,1.4,2.3c0.6,0,1.1-0.5,1.2-1.4L226.6,129.8z"/>
	<path class="st0" d="M242.4,133.5h-3.1v3.2h-1.5v-3.2h-3.1V132h3.1v-3.2h1.5v3.2h3.1V133.5z"/>
	<path class="st0" d="M78.1,153.4H75v3.2h-1.5v-3.2h-3.1V152h3.1v-3.2H75v3.2h3.1V153.4z"/>
	<path class="st0" d="M100,153.4h-3.1v3.2h-1.5v-3.2h-3.1V152h3.1v-3.2h1.5v3.2h3.1V153.4z"/>
	<path class="st0" d="M112.3,153.4h-3.1v3.2h-1.5v-3.2h-3.1V152h3.1v-3.2h1.5v3.2h3.1V153.4z"/>
	<path class="st0" d="M124.6,153.4h-3.1v3.2H120v-3.2h-3.1V152h3.1v-3.2h1.5v3.2h3.1V153.4z"/>
	<path class="st0" d="M137,153.4h-3.2v3.2h-1.5v-3.2h-3.1V152h3.1v-3.2h1.5v3.2h3.1L137,153.4L137,153.4z"/>
	<path class="st0" d="M149.2,153.4h-3.1v3.2h-1.5v-3.2h-3.1V152h3.1v-3.2h1.5v3.2h3.1L149.2,153.4L149.2,153.4z"/>
	<path class="st0" d="M161.5,153.4h-3.1v3.2h-1.5v-3.2h-3.1V152h3.1v-3.2h1.5v3.2h3.1V153.4z"/>
	<path class="st0" d="M173.9,153.4h-3.1v3.2h-1.5v-3.2h-3.1V152h3.1v-3.2h1.5v3.2h3.1V153.4z"/>
	<path class="st0" d="M186.2,153.4H183v3.2h-1.5v-3.2h-3.1V152h3.1v-3.2h1.5v3.2h3.1V153.4z"/>
	<path class="st0" d="M198.5,153.4h-3.1v3.2h-1.5v-3.2h-3.1V152h3.1v-3.2h1.5v3.2h3.1V153.4z"/>
	<path class="st0" d="M210.8,153.4h-3.1v3.2h-1.5v-3.2h-3.1V152h3.1v-3.2h1.5v3.2h3.1V153.4z"/>
	<path class="st0" d="M230.1,153.4h-3.1v3.2h-1.5v-3.2h-3.1V152h3.1v-3.2h1.5v3.2h3.1V153.4z"/>
	<path class="st0" d="M242.4,153.4h-3.1v3.2h-1.5v-3.2h-3.1V152h3.1v-3.2h1.5v3.2h3.1V153.4z"/>
	<path class="st0" d="M58.3,173.4h-3.1v3.2h-1.5v-3.2h-3.1v-1.5h3.1v-3.2h1.5v3.2h3.1L58.3,173.4L58.3,173.4z"/>
	<path class="st0" d="M70.6,173.4h-3.1v3.2H66v-3.2h-3.1v-1.5H66v-3.2h1.5v3.2h3.1V173.4z"/>
	<path class="st1" d="M80,176.2l-0.6-1.8h-3l-0.6,1.8h-1.2l2.6-7.9h1.7l2.6,7.9H80z M77.9,169.7l-1.1,3.5H79L77.9,169.7z"/>
	<path class="st1" d="M91.9,176.2h-0.6l-0.3-1c-0.5,0.9-1.1,1.1-2.1,1.1c-1,0-1.8-0.3-2.4-1.2c-0.5-0.8-0.8-1.7-0.8-2.9
		s0.3-2.1,0.9-2.9c0.6-0.8,1.5-1.2,2.4-1.2s1.6,0.3,2.3,1c0.3,0.3,0.5,0.8,0.6,1.4l-1.2,0.3c-0.1-0.3-0.3-0.6-0.3-0.9
		c-0.3-0.3-0.8-0.6-1.2-0.6c-0.5,0-1,0.3-1.4,0.6c-0.3,0.5-0.5,1.1-0.5,2.1c0,2,0.6,3,1.8,3c0.8,0,1.2-0.3,1.5-1
		c0.1-0.3,0.1-0.3,0.1-0.9h-1.7V172h3L91.9,176.2L91.9,176.2z"/>
	<path class="st1" d="M93.8,176.2v-7.9h5v1.1h-3.6v2.1h2.9v1.1h-2.9v2.3h3.8v1.2H93.8L93.8,176.2z"/>
	<path class="st1" d="M105,176.2l-3.1-5c0,0-0.1-0.3-0.3-0.3c0,0-0.1-0.3-0.3-0.3v5.9h-1.1v-7.9h1.6l2.7,4.6c0,0,0.1,0.3,0.3,0.3
		c0.1,0.3,0.1,0.3,0.3,0.5v-5.6h1.2v7.9L105,176.2L105,176.2z"/>
	<path class="st1" d="M108.3,176.2v-7.9h5v1.1h-3.6v2.1h2.9v1.1h-2.9v2.3h3.8v1.2H108.3L108.3,176.2z"/>
	<path class="st1" d="M119.5,176.2l-1.2-3.2h-2v3.2h-1.4v-7.9h3.3c1,0,1.5,0.1,2,0.6c0.5,0.3,0.8,1,0.8,1.7c0,1-0.3,1.6-1.4,2.1
		l1.4,3.5L119.5,176.2L119.5,176.2z M118,172c1,0,1.5-0.3,1.5-1.2c0-0.8-0.5-1.1-1.4-1.1h-1.8v2.4H118z"/>
	<path class="st1" d="M127.4,176.2l-0.6-1.8h-3l-0.6,1.8H122l2.6-7.9h1.7l2.6,7.9H127.4z M125.3,169.7l-1.1,3.5h2.3L125.3,169.7z"/>
	<path class="st1" d="M130.8,176.2v-6.6h-2.1v-1.2h5.7v1.2h-2.1v6.6H130.8z"/>
	<path class="st1" d="M135.6,176.2v-7.9h1.4v7.9H135.6z"/>
	<path class="st1" d="M140.5,176.2l-2.4-7.9h1.5l1.7,5.9l1.8-5.9h1.1l-2.4,7.9H140.5z"/>
	<path class="st1" d="M145.6,176.2v-7.9h5v1.1H147v2.1h2.9v1.1H147v2.3h3.8v1.2H145.6L145.6,176.2z"/>
	<path class="st1" d="M156.7,176.2v-6.6h-2.1v-1.2h5.7v1.2h-2.1v6.6H156.7z"/>
	<path class="st1" d="M163.5,176.2v-3.2l-2.6-4.5h1.7l1.8,3.2l1.7-3.2h1.4l-2.4,4.5v3.2H163.5z"/>
	<path class="st1" d="M168.5,176.2v-7.9h3.2c0.8,0,1.1,0.1,1.6,0.3c0.6,0.3,1,1.1,1,2c0,1.4-1,2.4-2.4,2.4h-2v3.1H168.5z M171.6,172
		c0.9,0,1.4-0.5,1.4-1.1c0-0.3-0.1-0.6-0.3-0.9c-0.3-0.3-0.6-0.3-1.1-0.3H170v2.4H171.6z"/>
	<path class="st1" d="M182.2,172.3c0,2.4-1.4,4-3.3,4c-1,0-1.8-0.3-2.4-1.1c-0.6-0.8-0.9-1.7-0.9-2.9c0-2.4,1.4-4,3.3-4
		C180.9,168.4,182.2,170,182.2,172.3z M177.4,170.2c-0.3,0.5-0.3,1.2-0.3,2.1c0,1.8,0.6,2.9,1.7,2.9c0.6,0,1.2-0.3,1.5-0.9
		c0.3-0.5,0.3-1.1,0.3-1.8c0-2-0.6-3-1.7-3C178.2,169.4,177.7,169.7,177.4,170.2z"/>
	<path class="st1" d="M189.7,176.2h-0.6l-0.3-1c-0.5,0.9-1.1,1.1-2.1,1.1c-1,0-1.8-0.3-2.4-1.2c-0.5-0.8-0.8-1.7-0.8-2.9
		s0.3-2.1,0.9-2.9c0.6-0.8,1.5-1.2,2.4-1.2c1,0,1.6,0.3,2.3,1c0.3,0.3,0.5,0.8,0.6,1.4l-1.2,0.3c-0.1-0.3-0.3-0.6-0.3-0.9
		c-0.3-0.3-0.8-0.6-1.2-0.6c-0.4,0-1,0.3-1.4,0.6c-0.3,0.5-0.5,1.1-0.5,2.1c0,2,0.6,3,1.8,3c0.8,0,1.2-0.3,1.5-1
		c0.1-0.3,0.1-0.3,0.1-0.9h-1.6V172h3L189.7,176.2L189.7,176.2z"/>
	<path class="st1" d="M196.2,176.2l-1.2-3.2h-2v3.2h-1.4v-7.9h3.3c1,0,1.5,0.1,2,0.6c0.5,0.3,0.8,1,0.8,1.7c0,1-0.3,1.6-1.4,2.1
		l1.4,3.5L196.2,176.2L196.2,176.2z M194.8,172c1,0,1.5-0.3,1.5-1.2c0-0.8-0.5-1.1-1.4-1.1H193v2.4H194.8z"/>
	<path class="st1" d="M204.2,176.2l-0.6-1.8h-3l-0.6,1.8h-1.2l2.6-7.9h1.7l2.6,7.9H204.2z M202,169.7l-1.1,3.5h2.3L202,169.7z"/>
	<path class="st1" d="M207,176.2v-7.9h3.2c0.8,0,1.1,0.1,1.6,0.3c0.6,0.3,1,1.1,1,2c0,1.4-1,2.4-2.4,2.4h-2v3.1H207z M210,172
		c0.9,0,1.4-0.5,1.4-1.1c0-0.3-0.1-0.6-0.3-0.9c-0.3-0.3-0.6-0.3-1.1-0.3h-1.5v2.4H210z"/>
	<path class="st1" d="M218.5,176.2v-3.3h-3v3.3h-1.4v-7.9h1.4v3.2h3v-3.2h1.4v7.9H218.5z"/>
	<path class="st1" d="M223.6,176.2v-3.2l-2.6-4.5h1.7l1.8,3.2l1.7-3.2h1.4l-2.4,4.5v3.2H223.6z"/>
	<path class="st0" d="M242.4,173.4h-3.1v3.2h-1.5v-3.2h-3.1v-1.5h3.1v-3.2h1.5v3.2h3.1V173.4z"/>
	<path class="st0" d="M43.2,193.2H40v3.2h-1.5v-3.2h-3.1v-1.5h3.1v-3.2H40v3.2h3.1V193.2z"/>
	<path class="st0" d="M55.5,193.2h-3.1v3.2h-1.5v-3.2h-3.1v-1.5h3.1v-3.2h1.5v3.2h3.1V193.2z"/>
	<path class="st0" d="M67.8,193.2h-3.1v3.2h-1.5v-3.2H60v-1.5h3.1v-3.2h1.5v3.2h3.1V193.2z"/>
	<path class="st0" d="M80,193.2h-3.1v3.2h-1.5v-3.2h-3.1v-1.5h3.1v-3.2h1.5v3.2H80V193.2z"/>
	<path class="st1" d="M87.8,188.4H91c0.9,0,1.2,0.1,1.7,0.3c0.5,0.3,0.9,1,0.9,1.6c0,0.9-0.5,1.5-1.4,1.7c0.5,0.1,0.6,0.1,0.9,0.3
		c0.5,0.3,0.8,0.9,0.8,1.6c0,0.6-0.3,1.1-0.6,1.5c-0.3,0.3-1,0.6-1.7,0.6h-3.3v-7.9h-0.3V188.4z M90.8,191.6c0.8,0,1.1-0.5,1.1-1.1
		c0-0.6-0.5-1-1.1-1h-1.7v2.1L90.8,191.6L90.8,191.6z M90.9,195c0.8,0,1.2-0.3,1.2-1.1c0-0.6-0.5-1.1-1.2-1.1h-1.8v2.3H90.9
		L90.9,195z"/>
	<path class="st1" d="M96.7,196.1v-3.2l-2.6-4.5h1.7l1.8,3.2l1.7-3.2h1.4l-2.4,4.5v3.2H96.7z"/>
	<path class="st1" d="M109.6,196.1l-0.6-1.8h-3l-0.6,1.8h-1.2l2.6-7.9h1.7l2.6,7.9H109.6z M107.3,189.6l-1.1,3.5h2.3L107.3,189.6z"
		/>
	<path class="st1" d="M112.3,196.1v-7.9h1.5v6.6h3.3v1.2L112.3,196.1L112.3,196.1z"/>
	<path class="st1" d="M118.4,188.4h3.1c0.9,0,1.2,0.1,1.7,0.3c0.5,0.3,0.9,1,0.9,1.6c0,0.9-0.5,1.5-1.4,1.7c0.5,0.1,0.6,0.1,0.9,0.3
		c0.5,0.3,0.8,0.9,0.8,1.6c0,0.6-0.3,1.1-0.6,1.5c-0.3,0.3-1,0.6-1.7,0.6h-3.3v-7.9h-0.3V188.4z M121.5,191.6c0.8,0,1.1-0.5,1.1-1.1
		c0-0.6-0.5-1-1.1-1h-1.7v2.1L121.5,191.6L121.5,191.6z M121.5,195c0.8,0,1.2-0.3,1.2-1.1c0-0.6-0.5-1.1-1.2-1.1h-1.8v2.3H121.5
		L121.5,195z"/>
	<path class="st1" d="M130.3,196.1l-0.6-1.8h-3l-0.6,1.8h-1.2l2.6-7.9h1.7l2.6,7.9H130.3z M128.2,189.6l-1.1,3.5h2.3L128.2,189.6z"
		/>
	<path class="st1" d="M134.6,195.9l-0.9,1.8h-0.5l0.6-1.6h-0.6v-1.5h1.4V195.9z"/>
	<path class="st1" d="M144.2,196.1l-0.6-1.8h-3l-0.6,1.8h-1.2l2.6-7.9h1.7l2.6,7.9H144.2z M142.1,189.6l-1.1,3.5h2.3L142.1,189.6z"
		/>
	<path class="st1" d="M148.6,196.1h-1.4v-1.5h1.4V196.1z"/>
	<path class="st1" d="M159.5,196.1h-0.6l-0.3-1c-0.5,0.9-1.1,1.1-2.1,1.1c-1,0-1.8-0.3-2.4-1.2c-0.5-0.8-0.8-1.7-0.8-2.9
		s0.3-2.1,0.9-2.9c0.6-0.8,1.5-1.2,2.4-1.2s1.6,0.3,2.3,1c0.3,0.3,0.5,0.8,0.6,1.4l-1.2,0.3c-0.1-0.3-0.3-0.6-0.3-0.9
		c-0.3-0.3-0.8-0.6-1.2-0.6c-0.4,0-1,0.3-1.4,0.6c-0.3,0.5-0.5,1.1-0.5,2.1c0,2,0.6,3,1.8,3c0.8,0,1.2-0.3,1.5-1
		c0.1-0.3,0.1-0.3,0.1-0.9h-1.6v-1.1h3L159.5,196.1L159.5,196.1z"/>
	<path class="st1" d="M166.9,193.4c0,1.1-0.1,1.6-0.6,2.1c-0.5,0.5-1.2,0.8-2.1,0.8s-1.6-0.3-2.1-0.8s-0.6-1-0.6-2.1v-5.1h1.5v5
		c0,0.6,0.1,1,0.3,1.2c0.3,0.3,0.6,0.3,1.1,0.3c0.5,0,1-0.3,1.1-0.5c0.1-0.3,0.3-0.6,0.3-1.2v-5h1.1L166.9,193.4L166.9,193.4z"/>
	<path class="st1" d="M168.8,196.1v-7.9h5v1.1h-3.6v2.1h2.9v1.1h-2.9v2.3h3.8v1.2H168.8L168.8,196.1z"/>
	<path class="st1" d="M180,196.1l-1.2-3.2h-2v3.2h-1.4v-7.9h3.3c1,0,1.5,0.1,2,0.6c0.5,0.3,0.8,1,0.8,1.7c0,1-0.3,1.6-1.4,2.1
		l1.4,3.5L180,196.1L180,196.1z M178.5,191.9c1,0,1.5-0.3,1.5-1.2c0-0.8-0.5-1.1-1.4-1.1h-1.8v2.4H178.5z"/>
	<path class="st1" d="M187.8,196.1l-1.2-3.2h-2v3.2h-1.4v-7.9h3.3c1,0,1.5,0.1,2,0.6c0.5,0.3,0.8,1,0.8,1.7c0,1-0.3,1.6-1.4,2.1
		l1.4,3.5L187.8,196.1L187.8,196.1z M186.3,191.9c1,0,1.5-0.3,1.5-1.2c0-0.8-0.5-1.1-1.4-1.1h-1.8v2.4H186.3z"/>
	<path class="st1" d="M190.9,196.1v-7.9h5v1.1h-3.6v2.1h2.9v1.1h-2.9v2.3h3.8v1.2H190.9L190.9,196.1z"/>
	<path class="st1" d="M202.1,196.1l-1.2-3.2h-2v3.2h-1.4v-7.9h3.3c1,0,1.5,0.1,2,0.6c0.5,0.3,0.8,1,0.8,1.7c0,1-0.3,1.6-1.4,2.1
		l1.4,3.5L202.1,196.1L202.1,196.1z M200.7,191.9c1,0,1.5-0.3,1.5-1.2c0-0.8-0.5-1.1-1.4-1.1h-1.8v2.4H200.7z"/>
	<path class="st1" d="M211.5,192.3c0,2.4-1.4,4-3.3,4c-1,0-1.8-0.3-2.4-1.1c-0.6-0.8-0.9-1.7-0.9-2.9c0-2.4,1.4-4,3.3-4
		C210.2,188.2,211.5,189.9,211.5,192.3z M206.8,190.2c-0.3,0.5-0.3,1.2-0.3,2.1c0,1.8,0.6,2.9,1.7,2.9c0.6,0,1.2-0.3,1.5-0.9
		c0.3-0.5,0.3-1.1,0.3-1.8c0-2-0.6-3-1.7-3C207.6,189.4,207.1,189.6,206.8,190.2z"/>
	<path class="st1" d="M214.2,195.9l-0.9,1.8h-0.5l0.6-1.6h-0.6v-1.5h1.4V195.9L214.2,195.9z"/>
	<path class="st1" d="M225.6,196.1v-6.8l-2.1,6.8h-0.8l-2.1-6.8v6.8h-1.1v-7.9h2.3l1.6,5.1l1.6-5.1h2.3v7.9H225.6z"/>
	<path class="st1" d="M230.3,196.1h-1.4v-1.5h1.4V196.1z"/>
	<path class="st0" d="M242.4,193.2h-3.1v3.2h-1.5v-3.2h-3.1v-1.5h3.1v-3.2h1.5v3.2h3.1V193.2z"/>
	<path class="st0" d="M11.3,213.2H8.2v3.2H6.7v-3.2H3.5v-1.5h3.1v-3.2h1.5v3.2h3.1V213.2z"/>
	<path class="st0" d="M33.1,213.2h-3.1v3.2h-1.5v-3.2h-3.1v-1.5h3.1v-3.2h1.5v3.2h3.1V213.2z"/>
	<path class="st0" d="M45.3,213.2h-3.1v3.2h-1.5v-3.2h-3.1v-1.5h3.1v-3.2h1.5v3.2h3.1V213.2z"/>
	<path class="st0" d="M57.7,213.2h-3.1v3.2H53v-3.2h-3.1v-1.5H53v-3.2h1.5v3.2h3.1V213.2z"/>
	<path class="st0" d="M70,213.2h-3.1v3.2h-1.5v-3.2h-3.1v-1.5h3.1v-3.2h1.5v3.2H70V213.2z"/>
	<path class="st0" d="M82.3,213.2h-3.1v3.2h-1.5v-3.2h-3.1v-1.5h3.1v-3.2h1.5v3.2h3.1C82.3,211.7,82.3,213.2,82.3,213.2z"/>
	<path class="st0" d="M94.6,213.2h-3.1v3.2H90v-3.2h-3.1v-1.5H90v-3.2h1.5v3.2h3.1V213.2z"/>
	<path class="st0" d="M107,213.2h-3.1v3.2h-1.5v-3.2h-3.1v-1.5h3.1v-3.2h1.5v3.2h3.1V213.2z"/>
	<path class="st0" d="M119.3,213.2h-3.1v3.2h-1.5v-3.2h-3.1v-1.5h3.1v-3.2h1.5v3.2h3.1V213.2z"/>
	<path class="st0" d="M131.5,213.2h-3.1v3.2h-1.5v-3.2h-3.1v-1.5h3.1v-3.2h1.5v3.2h3.1V213.2z"/>
	<path class="st0" d="M143.9,213.2h-3.1v3.2h-1.5v-3.2h-3.1v-1.5h3.1v-3.2h1.5v3.2h3.1V213.2z"/>
	<path class="st0" d="M156.2,213.2H153v3.2h-1.5v-3.2h-3.1v-1.5h3.1v-3.2h1.5v3.2h3.1L156.2,213.2L156.2,213.2z"/>
	<path class="st0" d="M168.5,213.2h-3.1v3.2h-1.5v-3.2h-3.1v-1.5h3.1v-3.2h1.5v3.2h3.1V213.2z"/>
	<path class="st0" d="M180.9,213.2h-3.1v3.2h-1.5v-3.2h-3.1v-1.5h3.1v-3.2h1.5v3.2h3.1V213.2z"/>
	<path class="st0" d="M193.2,213.2H190v3.2h-1.5v-3.2h-3.1v-1.5h3.1v-3.2h1.5v3.2h3.1V213.2z"/>
	<path class="st0" d="M205.4,213.2h-3.1v3.2h-1.5v-3.2h-3.1v-1.5h3.1v-3.2h1.5v3.2h3.1V213.2z"/>
	<path class="st0" d="M217.7,213.2h-3.1v3.2h-1.4v-3.2h-3.1v-1.5h3.1v-3.2h1.5v3.2h3.1L217.7,213.2L217.7,213.2z"/>
	<path class="st0" d="M230.1,213.2h-3.1v3.2h-1.5v-3.2h-3.1v-1.5h3.1v-3.2h1.5v3.2h3.1V213.2z"/>
	<path class="st0" d="M242.4,213.2h-3.1v3.2h-1.5v-3.2h-3.1v-1.5h3.1v-3.2h1.5v3.2h3.1V213.2z"/>
</g>
</svg>
